<svg xmlns="http://www.w3.org/2000/svg" viewBox="0 0 32 32">
  <defs>
    <linearGradient id="grad" x1="0%" y1="0%" x2="100%" y2="100%">
      <stop offset="0%" style="stop-color:#f97316"/>
      <stop offset="100%" style="stop-color:#dc2626"/>
    </linearGradient>
  </defs>
  <rect width="32" height="32" rx="6" fill="url(#grad)"/>
  <path d="M16 6c-1.5 2-3 5-3 8 0 2 1 3.5 2.5 4.5C17 19 18 20 18 22h-4c0-3 2-5 4-6 0-1-.5-1.5-1-2-1 .5-2 1-2 2h-2c0-1.5 1-3 2-4 .5-1 1-2 1-3 0-2-1-4-2-5z" fill="white"/>
  <path d="M10 22c0-2.5 1.5-5 3-6.5-1 .5-2 1.5-2 3 0 1 .5 2 1.5 2.5C12 21.5 11 22.5 10 24v-2z" fill="white" opacity="0.8"/>
</svg>
